# xmcd
#
# Track frame offsets:
#	150
#	14319
#	28823
#	43948
#	59062
#	72565
#	85343
#	99175
#	114720
#	132195
#	145726
#	158469
#
# Disc length: 2292 seconds
#
# Revision: 1
# Processed by: cddbd v1.5.2PL0 Copyright (c) Steve Scherf et al.
# Submitted via: audiograbber 1.83.01
#
DISCID=a508f20c
DTITLE=Vincent and Fernando  - Wenn er die Bergesieht
DYEAR=1900
DGENRE=
TTITLE0=Wenn er die Berge sieht
TTITLE1=Glaube an Gott
TTITLE2=Du bis die schönste Frau der Welt
TTITLE3=Wie eine Liebe
TTITLE4=Der Himmel weint nicht mehr
TTITLE5=Lieber später als nie
TTITLE6=Geteiltes Herz
TTITLE7=Das Erbe Sehnsucht
TTITLE8=Ein Gipfelkreuz
TTITLE9=Die Liebe zur Heimat
TTITLE10=Ja, nur du allein
TTITLE11=Warum denn du
EXTD=
EXTT0=
EXTT1=
EXTT2=
EXTT3=
EXTT4=
EXTT5=
EXTT6=
EXTT7=
EXTT8=
EXTT9=
EXTT10=
EXTT11=
PLAYORDER=
